<?xml version="1.0" encoding="UTF-8"?>
<svg width="800" height="800" viewBox="0 0 800 800" xmlns="http://www.w3.org/2000/svg">
  <defs>
    <linearGradient id="lineGradient" x1="0%" y1="0%" x2="100%" y2="100%">
      <stop offset="0%" style="stop-color:#FF0000;stop-opacity:0.1"/>
      <stop offset="100%" style="stop-color:#FF0000;stop-opacity:0.3"/>
    </linearGradient>
  </defs>
  
  <!-- Base sphere structure -->
  <g transform="translate(400,400)">
    <!-- Horizontal lines -->
    <path d="M-300,-250 Q0,-270 300,-250" fill="none" stroke="url(#lineGradient)" stroke-width="1" />
    <path d="M-300,-200 Q0,-220 300,-200" fill="none" stroke="url(#lineGradient)" stroke-width="1" />
    <path d="M-300,-150 Q0,-170 300,-150" fill="none" stroke="url(#lineGradient)" stroke-width="1" />
    <path d="M-300,-100 Q0,-120 300,-100" fill="none" stroke="url(#lineGradient)" stroke-width="1" />
    <path d="M-300,-50 Q0,-70 300,-50" fill="none" stroke="url(#lineGradient)" stroke-width="1" />
    <path d="M-300,0 Q0,-20 300,0" fill="none" stroke="url(#lineGradient)" stroke-width="1" />
    <path d="M-300,50 Q0,30 300,50" fill="none" stroke="url(#lineGradient)" stroke-width="1" />
    <path d="M-300,100 Q0,80 300,100" fill="none" stroke="url(#lineGradient)" stroke-width="1" />
    <path d="M-300,150 Q0,130 300,150" fill="none" stroke="url(#lineGradient)" stroke-width="1" />
    <path d="M-300,200 Q0,180 300,200" fill="none" stroke="url(#lineGradient)" stroke-width="1" />
    <path d="M-300,250 Q0,230 300,250" fill="none" stroke="url(#lineGradient)" stroke-width="1" />
    
    <!-- Vertical lines -->
    <path d="M-250,-300 Q-270,0 -250,300" fill="none" stroke="url(#lineGradient)" stroke-width="1" />
    <path d="M-200,-300 Q-220,0 -200,300" fill="none" stroke="url(#lineGradient)" stroke-width="1" />
    <path d="M-150,-300 Q-170,0 -150,300" fill="none" stroke="url(#lineGradient)" stroke-width="1" />
    <path d="M-100,-300 Q-120,0 -100,300" fill="none" stroke="url(#lineGradient)" stroke-width="1" />
    <path d="M-50,-300 Q-70,0 -50,300" fill="none" stroke="url(#lineGradient)" stroke-width="1" />
    <path d="M0,-300 Q-20,0 0,300" fill="none" stroke="url(#lineGradient)" stroke-width="1" />
    <path d="M50,-300 Q30,0 50,300" fill="none" stroke="url(#lineGradient)" stroke-width="1" />
    <path d="M100,-300 Q80,0 100,300" fill="none" stroke="url(#lineGradient)" stroke-width="1" />
    <path d="M150,-300 Q130,0 150,300" fill="none" stroke="url(#lineGradient)" stroke-width="1" />
    <path d="M200,-300 Q180,0 200,300" fill="none" stroke="url(#lineGradient)" stroke-width="1" />
    <path d="M250,-300 Q230,0 250,300" fill="none" stroke="url(#lineGradient)" stroke-width="1" />
    
    <!-- Diagonal lines -->
    <path d="M-300,-300 Q0,0 300,-200" fill="none" stroke="url(#lineGradient)" stroke-width="1" />
    <path d="M-300,-200 Q0,0 300,-100" fill="none" stroke="url(#lineGradient)" stroke-width="1" />
    <path d="M-300,-100 Q0,0 300,0" fill="none" stroke="url(#lineGradient)" stroke-width="1" />
    <path d="M-300,0 Q0,0 300,100" fill="none" stroke="url(#lineGradient)" stroke-width="1" />
    <path d="M-300,100 Q0,0 300,200" fill="none" stroke="url(#lineGradient)" stroke-width="1" />
    <path d="M-300,200 Q0,0 300,300" fill="none" stroke="url(#lineGradient)" stroke-width="1" />
    
    <path d="M-200,-300 Q0,0 300,-300" fill="none" stroke="url(#lineGradient)" stroke-width="1" />
    <path d="M-100,-300 Q0,0 300,-200" fill="none" stroke="url(#lineGradient)" stroke-width="1" />
    <path d="M0,-300 Q0,0 300,-100" fill="none" stroke="url(#lineGradient)" stroke-width="1" />
    <path d="M100,-300 Q0,0 300,0" fill="none" stroke="url(#lineGradient)" stroke-width="1" />
    <path d="M200,-300 Q0,0 300,100" fill="none" stroke="url(#lineGradient)" stroke-width="1" />
    
    <!-- Connection points -->
    <circle cx="-280" cy="0" r="2" fill="#FF0000" fill-opacity="0.5" />
    <circle cx="-198" cy="-198" r="2" fill="#FF0000" fill-opacity="0.5" />
    <circle cx="0" cy="-280" r="2" fill="#FF0000" fill-opacity="0.5" />
    <circle cx="198" cy="-198" r="2" fill="#FF0000" fill-opacity="0.5" />
    <circle cx="280" cy="0" r="2" fill="#FF0000" fill-opacity="0.5" />
    <circle cx="198" cy="198" r="2" fill="#FF0000" fill-opacity="0.5" />
    <circle cx="0" cy="280" r="2" fill="#FF0000" fill-opacity="0.5" />
    <circle cx="-198" cy="198" r="2" fill="#FF0000" fill-opacity="0.5" />
    
    <!-- Additional connection points -->
    <circle cx="-140" cy="-242" r="2" fill="#FF0000" fill-opacity="0.5" />
    <circle cx="140" cy="-242" r="2" fill="#FF0000" fill-opacity="0.5" />
    <circle cx="242" cy="-140" r="2" fill="#FF0000" fill-opacity="0.5" />
    <circle cx="242" cy="140" r="2" fill="#FF0000" fill-opacity="0.5" />
    <circle cx="140" cy="242" r="2" fill="#FF0000" fill-opacity="0.5" />
    <circle cx="-140" cy="242" r="2" fill="#FF0000" fill-opacity="0.5" />
    <circle cx="-242" cy="140" r="2" fill="#FF0000" fill-opacity="0.5" />
    <circle cx="-242" cy="-140" r="2" fill="#FF0000" fill-opacity="0.5" />
  </g>
</svg> 